PathFileType	4	(X/Y/Z)
DataRate	CameraRate	NumFrames	NumMarkers	Units	OrigDataRate	OrigDataStartFrame	OrigNumFrames	
	120.0	120.0	5	39	mm	120.0	116	231
Frame#	Time	midhip	hip_r	hip_l	knee_r	knee_l	ankle_r	ankle_l	midasis	asis_r	asis_l	psis_r	psis_l	epicondLat_r	epicondLat_l	epicondMed_r	epicondMed_l	malleolusLat_r	malleolusLat_l	malleolusMedv_r	malleolusMedv_l	heel_r	heel_l	sternalnotch	xyphoidprocess	neck	subclavicle_r	subclavicle_l	toe_r	toe_l	thighwand_r	thighwand_l	upperleg1_r	upperleg1_l	upperleg2_r	upperleg2_l	shankwand_r	shankwand_l	lowerleg1_r	lowerleg1_l
	X1	Y1	Z1	X2	Y2	Z2	X3	Y3	Z3	X4	Y4	Z4	X5	Y5	Z5	X6	Y6	Z6	X7	Y7	Z7	X8	Y8	Z8	X9	Y9	Z9	X10	Y10	Z10	X11	Y11	Z11	X12	Y12	Z12	X13	Y13	Z13	X14	Y14	Z14	X15	Y15	Z15	X16	Y16	Z16	X17	Y17	Z17	X18	Y18	Z18	X19	Y19	Z19	X20	Y20	Z20	X21	Y21	Z21	X22	Y22	Z22	X23	Y23	Z23	X24	Y24	Z24	X25	Y25	Z25	X26	Y26	Z26	X27	Y27	Z27	X28	Y28	Z28	X29	Y29	Z29	X30	Y30	Z30	X31	Y31	Z31	X32	Y32	Z32	X33	Y33	Z33	X34	Y34	Z34	X35	Y35	Z35	X36	Y36	Z36	X37	Y37	Z37	X38	Y38	Z38	X39	Y39	Z39

	116	0.96667	1360.773	701.453	-227.071	1358.754	703.747	-164.231	1362.792	699.158	-289.911	1339.847	374.286	-139.239	1341.089	378.083	-308.251	1355.254	57.543	-109.501	1336.357	59.430	-343.732	1436.054	753.240	-226.544	1433.057	756.647	-133.237	1439.052	749.833	-319.851	1297.421	816.397	-214.320	1298.421	809.520	-268.701	1337.955	378.211	-88.928	1340.882	380.948	-358.168	1337.151	375.894	-189.400	1342.809	366.574	-254.900	1345.309	60.054	-77.610	1330.314	63.277	-377.480	1351.760	65.260	-137.223	1332.518	60.367	-313.844	1299.874	38.923	-112.414	1283.314	40.825	-338.558	1399.032	1115.418	-242.803	1452.257	981.330	-239.048	1323.365	1149.927	-243.284	1398.166	1127.927	-182.540	1403.886	1127.541	-297.794	1451.357	40.065	-99.158	1432.100	38.696	-357.477	1341.853	485.077	-20.902	1477.101	475.958	-335.047	1381.538	538.248	-91.450	1413.171	530.339	-274.146	1386.201	453.809	-98.839	1396.575	444.054	-275.032	1317.084	168.163	-15.014	1420.656	163.355	-371.786	1329.452	219.349	-78.811	1360.278	216.637	-344.120
	117	0.97500	1360.793	701.456	-227.063	1358.767	703.753	-164.223	1362.819	699.159	-289.903	1339.873	374.314	-139.244	1341.117	378.082	-308.252	1355.295	57.548	-109.508	1336.372	59.429	-343.730	1436.078	753.238	-226.529	1433.070	756.648	-133.221	1439.087	749.827	-319.836	1297.446	816.411	-214.333	1298.462	809.517	-268.704	1337.973	378.238	-88.932	1340.919	380.948	-358.169	1337.142	375.943	-189.391	1342.845	366.596	-254.849	1345.345	60.057	-77.619	1330.335	63.276	-377.479	1351.763	65.292	-137.228	1332.525	60.375	-313.846	1299.882	38.936	-112.425	1283.318	40.832	-338.567	1398.977	1115.417	-242.788	1452.111	981.292	-239.036	1323.248	1150.001	-243.310	1398.096	1127.915	-182.514	1403.863	1127.546	-297.784	1451.381	40.068	-99.169	1432.103	38.685	-357.482	1341.870	485.082	-20.903	1477.140	475.952	-335.044	1381.595	538.304	-91.451	1413.226	530.351	-274.146	1386.217	453.827	-98.833	1396.617	444.061	-275.008	1317.095	168.168	-15.019	1420.676	163.347	-371.779	1329.498	219.400	-78.819	1360.321	216.634	-344.118
	118	0.98333	1360.812	701.448	-227.048	1358.775	703.751	-164.209	1362.848	699.146	-289.887	1339.899	374.325	-139.248	1341.150	378.070	-308.252	1355.354	57.530	-109.523	1336.402	59.397	-343.713	1436.105	753.217	-226.505	1433.082	756.635	-133.206	1439.129	749.799	-319.803	1297.470	816.425	-214.347	1298.507	809.514	-268.707	1337.991	378.246	-88.937	1340.963	380.938	-358.169	1337.141	375.947	-189.383	1342.924	366.495	-254.842	1345.400	60.037	-77.634	1330.372	63.242	-377.464	1351.785	65.310	-137.247	1332.581	60.392	-313.843	1299.884	38.953	-112.446	1283.319	40.843	-338.578	1398.948	1115.379	-242.798	1451.949	981.202	-239.052	1323.255	1150.037	-243.350	1398.051	1127.864	-182.532	1403.871	1127.517	-297.778	1451.412	40.062	-99.183	1432.111	38.659	-357.484	1341.878	485.077	-20.905	1477.183	475.930	-335.024	1381.626	538.317	-91.447	1413.203	530.292	-274.112	1386.226	453.808	-98.824	1396.651	443.999	-274.985	1317.104	168.160	-15.031	1420.702	163.324	-371.760	1329.543	219.418	-78.832	1360.350	216.588	-344.106
	119	0.99167	1360.831	701.431	-227.026	1358.781	703.741	-164.188	1362.881	699.121	-289.865	1339.922	374.312	-139.254	1341.187	378.046	-308.251	1355.411	57.488	-109.543	1336.440	59.337	-343.685	1436.136	753.183	-226.472	1433.094	756.611	-133.191	1439.179	749.754	-319.753	1297.491	816.435	-214.363	1298.554	809.506	-268.712	1338.007	378.230	-88.943	1341.013	380.916	-358.168	1337.247	375.890	-189.429	1342.965	366.375	-254.836	1345.452	59.992	-77.656	1330.420	63.179	-377.437	1351.839	65.292	-137.259	1332.659	60.361	-313.835	1299.882	38.967	-112.469	1283.316	40.854	-338.591	1398.965	1115.310	-242.851	1451.845	981.083	-239.156	1323.266	1150.047	-243.364	1398.078	1127.772	-182.590	1403.901	1127.465	-297.815	1451.444	40.044	-99.196	1432.122	38.619	-357.483	1341.872	485.063	-20.909	1477.232	475.895	-334.987	1381.631	538.278	-91.442	1413.195	530.195	-274.077	1386.271	453.731	-98.839	1396.672	443.901	-274.960	1317.108	168.138	-15.048	1420.728	163.288	-371.736	1329.594	219.392	-78.850	1360.367	216.516	-344.094
	120	1.00000	1360.852	701.408	-227.006	1358.785	703.725	-164.168	1362.919	699.091	-289.844	1339.939	374.280	-139.261	1341.226	378.015	-308.250	1355.460	57.432	-109.566	1336.478	59.260	-343.650	1436.169	753.143	-226.436	1433.102	756.582	-133.176	1439.237	749.704	-319.696	1297.508	816.441	-214.379	1298.600	809.496	-268.716	1338.017	378.193	-88.949	1341.065	380.888	-358.167	1337.412	375.814	-189.502	1342.976	366.272	-254.827	1345.497	59.932	-77.680	1330.466	63.098	-377.405	1351.895	65.238	-137.250	1332.729	60.286	-313.829	1299.877	38.971	-112.488	1283.313	40.863	-338.603	1399.011	1115.212	-242.901	1451.784	980.941	-239.296	1323.264	1150.034	-243.372	1398.191	1127.657	-182.660	1403.904	1127.379	-297.842	1451.470	40.015	-99.207	1432.135	38.576	-357.479	1341.848	485.041	-20.913	1477.281	475.855	-334.938	1381.621	538.211	-91.428	1413.201	530.077	-274.014	1386.329	453.643	-98.857	1396.690	443.827	-274.921	1317.105	168.105	-15.066	1420.752	163.243	-371.718	1329.627	219.350	-78.867	1360.401	216.437	-344.062
